/* XPM */
static const char * clubs_xpm[] = {
"26 24 2 1",
" 	c None",
".	c #000000",
"           ....           ",
"         ........         ",
"         ........         ",
"        ..........        ",
"        ..........        ",
"         ........         ",
"         ........         ",
"          ......          ",
"   ...    ......    ...   ",
"  ......   ....   ......  ",
" ........   ..   ........ ",
"..........  ..  ..........",
"..........................",
"..........................",
"........... .. ...........",
" .........  ..  ......... ",
"  ......    ..    ......  ",
"   ...      ..      ...   ",
"            ..            ",
"           ....           ",
"           ....           ",
"           ....           ",
"          ......          ",
"          ......          "};
