/* XPM */
static const char * diamonds_xpm[] = {
"24 24 4 1",
" 	c None",
".	c #DF0000",
"+	c #E00000",
"@	c #DE0000",
"                        ",
"           ..           ",
"          ....          ",
"         .....+         ",
"        .......+        ",
"       ..........       ",
"      ...........@      ",
"     ..............     ",
"    ...............@    ",
"   ..................   ",
"  ...................+  ",
" ...................... ",
" ...................... ",
"  ...................+  ",
"   +.................   ",
"    ................    ",
"     ..............     ",
"      @..........+      ",
"       ..........       ",
"        ........        ",
"         .....+         ",
"          ....          ",
"           ..           ",
"                        "};
