/* XPM */
static char * hearts_xpm[] = {
"24 23 4 1",
" 	c None",
".	c #E00000",
"+	c #DF0000",
"@	c #DE0000",
"                        ",
"   .+++++      ++++++   ",
"  ++++++++    ++++++++  ",
" ++++++++++  ++++++++++ ",
"+++++++++++@++++++++++++",
"++++++++++++++++++++++++",
"++++++++++++++++++++++++",
"++++++++++++++++++++++++",
"+++++++++++++++++++++++@",
" ++++++++++++++++++++++ ",
" ++++++++++++++++++++++ ",
"  ++++++++++++++++++++  ",
"  +++++++++++++++++++@  ",
"   .+++++++++++++++++   ",
"    ++++++++++++++++    ",
"     ++++++++++++++     ",
"      ++++++++++++      ",
"       ++++++++++       ",
"        .+++++++        ",
"         ++++++         ",
"          ++++          ",
"           ++           ",
"                        "};
